<svg width="121" height="241" viewBox="0 0 121 241" fill="none" xmlns="http://www.w3.org/2000/svg">
<path d="M90.1777 18.7691C96.2043 17.5516 103.205 18.282 108.623 22.2997C109.901 23.3346 111.179 24.4913 112.153 25.9523C113.067 27.4133 113.797 29.4221 113.188 31.3701C112.64 33.2572 111.179 34.7182 109.414 35.1443C107.649 35.5095 105.823 34.9617 104.788 33.7442C107.71 35.2052 110.814 33.2572 110.936 30.8831C111.179 28.6307 109.049 26.4392 106.857 24.7347C102.292 21.204 96.3869 19.9257 90.2386 18.7691H90.1777Z" fill="#050505"/>
<path d="M90.2391 23.1519C95.7787 25.3433 100.892 28.6306 105.397 32.7701C107.649 34.8398 109.597 37.5183 110.632 40.6229C111.119 42.2056 111.423 43.8492 111.302 45.5537C111.18 47.2582 110.449 49.2671 108.867 50.4846C105.579 52.9196 101.257 51.8238 98.8224 49.5715C96.2048 47.38 94.9264 44.5797 93.648 41.8404C90.7869 36.4834 88.7781 30.9438 86.6475 25.4042C88.2302 27.9001 89.6912 30.5177 91.2131 33.0745C92.6132 35.6921 94.135 38.2488 95.6569 40.6838L97.9093 44.3971C98.7615 45.5538 99.6746 46.5886 100.649 47.38C102.597 49.0236 105.336 49.3889 107.04 48.1105C108.623 46.9539 108.745 43.971 107.954 41.4751C107.223 38.8575 105.64 36.5443 103.814 34.4137C99.9181 30.1525 95.2917 26.5 90.2999 23.1519H90.2391Z" fill="#050505"/>
<path d="M96.6306 44.8842C97.7873 49.3281 97.5438 54.5024 94.0739 58.581C92.3694 60.5899 88.8387 61.4422 86.282 59.9812C83.7252 58.7028 82.2642 56.1461 81.5946 53.772C80.3771 48.902 80.6815 44.519 80.4989 39.8317C80.4989 35.327 80.0119 30.5179 81.8381 26.1349C81.2902 30.7005 82.3251 35.1443 82.8121 39.6491C83.1165 41.9014 83.2991 44.1537 83.5426 46.4061C83.7252 48.6585 83.9078 50.9718 84.5166 52.9197C85.3688 56.8766 89.3866 59.6768 92.4912 56.8766C94.013 55.6591 94.987 53.6502 95.5958 51.5196C96.3263 49.4499 96.5698 47.1975 96.5698 44.8842H96.6306Z" fill="#050505"/>
<path d="M82.4476 52.1283C81.6563 54.0763 80.6823 55.9635 79.2213 57.6071C77.6994 59.1898 75.3862 60.3464 72.9512 60.2247C70.3944 60.2856 67.8986 57.9723 67.3507 55.5373C66.6811 53.0414 67.2898 50.7282 67.7768 48.7194C69.9683 40.5622 73.7425 33.0137 78.369 26.1349C75.8732 34.1095 72.6468 41.6579 70.6988 49.5107C69.4204 53.2241 69.664 57.3636 73.1338 57.9115C76.7254 58.642 79.8909 55.3547 82.3867 52.1283H82.4476Z" fill="#050505"/>
<path d="M76.603 30.3962C74.9593 35.2053 72.2809 39.6491 68.811 43.4842C67.0456 45.3714 65.3411 47.2585 62.5409 48.5368C61.1408 49.1456 59.3754 49.3282 57.8536 48.7195C56.2708 48.2325 54.749 46.5889 54.5663 44.8235C54.3228 41.3536 56.0273 39.0404 57.6101 36.8489C59.3146 34.7791 61.3234 33.0138 63.3932 31.5528C67.6544 28.7526 72.0374 26.135 76.4812 23.7609C72.707 27.1698 68.7501 30.2744 64.915 33.3182C63.0888 35.0227 61.3234 36.6663 59.9233 38.5534C58.5841 40.3796 57.3666 42.6929 57.6101 44.3365C57.6101 45.7975 59.7407 46.5888 61.5669 45.7975C63.454 45.1278 65.3411 43.3016 67.2283 41.7798C70.8199 38.4925 73.9245 34.5356 76.6638 30.3353L76.603 30.3962Z" fill="#050505"/>
<path d="M63.4541 32.7091C61.08 33.4396 58.158 31.2482 57.9754 28.2653C57.671 25.3433 59.8016 22.6039 62.2975 21.6299C64.7324 20.6559 66.9848 20.3516 69.4198 20.2299C71.7939 20.169 74.168 20.2907 76.4204 21.0212C74.1071 21.5691 71.9156 21.9952 69.7242 22.5431C67.5935 23.1518 65.3412 23.6388 63.515 24.4302C61.7496 25.0998 60.593 26.5608 60.2886 28.3262C59.9842 29.9698 61.1408 32.1613 63.4541 32.77V32.7091Z" fill="#050505"/>
<path d="M83.5135 25.5866C87.5247 25.1544 90.5545 22.7447 90.2808 20.2042C90.007 17.6638 86.5334 15.9547 82.5222 16.387C78.511 16.8192 75.4812 19.229 75.7549 21.7694C76.0287 24.3098 79.5023 26.0188 83.5135 25.5866Z" stroke="#050505" stroke-width="1.06593" stroke-miterlimit="10"/>
<path d="M40.0791 2.51526C45.1926 1.29776 51.0974 1.78476 55.8456 5.13287C57.0023 5.98511 58.0371 6.95912 58.9502 8.23749C59.7416 9.45498 60.4721 11.2812 59.9242 12.9857C59.3764 14.6293 58.0371 15.8468 56.5152 16.2121C54.9934 16.4555 53.4106 15.9686 52.5584 14.8728C55.0543 15.9686 57.5501 14.325 57.611 12.4379C57.7327 10.7334 55.9674 8.90711 54.0803 7.56786C50.2452 4.76763 45.3143 3.67187 40.0791 2.51526Z" fill="#050505"/>
<path d="M40.0778 6.16794C44.826 7.87243 49.1481 10.49 53.044 13.8381C54.992 15.5426 56.6965 17.7341 57.6705 20.3517C58.5228 22.7867 59.0098 26.4392 56.0878 28.935C53.2267 30.9439 49.5742 30.0917 47.3827 28.2654C45.0695 26.4392 43.9737 24.0651 42.878 21.8127C40.443 17.308 38.7385 12.7424 36.9731 7.99415C39.8343 12.0728 42.1475 16.5775 44.8868 20.5952C46.2261 22.6041 47.3827 24.8564 49.1481 26.013C50.7308 27.2914 52.9832 27.474 54.2615 26.5001C55.479 25.7087 55.6008 23.3346 54.9312 21.2648C54.3224 19.1342 52.9832 17.2471 51.4004 15.4818C48.1132 12.0119 44.2172 8.90729 40.0778 6.10706V6.16794Z" fill="#050505"/>
<path d="M45.5568 24.0651C46.5916 27.7176 46.4699 32.1006 43.487 35.5095C42.026 37.214 39.0432 37.8836 36.7908 36.7879C34.5993 35.8139 33.1992 33.6224 32.5905 31.6136C31.4947 27.4741 31.7991 23.8825 31.6165 19.9865C31.6165 16.2123 31.3121 12.1945 32.9557 8.60291C32.5905 12.3771 33.5645 16.0905 33.9906 19.8039C34.6602 23.4563 34.5385 27.535 35.5125 30.7004C36.3038 33.8659 39.4084 35.8747 41.9652 33.805C43.1827 32.8919 44.0349 31.2483 44.6436 29.5438C45.3133 27.8393 45.5568 26.0131 45.6176 24.0651H45.5568Z" fill="#050505"/>
<path d="M33.4431 30.0308C32.8344 31.6744 31.9821 33.2572 30.7646 34.6573C29.4862 35.9965 27.5383 36.9705 25.4685 36.9705C23.3379 37.0923 20.9638 35.3269 20.4159 33.1354C19.7463 31.0048 20.2942 28.935 20.6594 27.2914C22.5465 20.4735 25.8338 14.2034 29.9732 8.60291C27.9644 15.2991 25.2859 21.5692 23.6423 28.0828C22.6074 31.2483 22.8509 34.2312 25.6511 34.6573C28.5123 35.266 31.2516 32.7093 33.4431 30.0917V30.0308Z" fill="#050505"/>
<path d="M28.5118 12.1339C27.1725 16.2125 24.8593 19.9258 21.9373 23.1522C20.4154 24.7349 18.9545 26.3177 16.5803 27.4135C15.3628 27.9004 13.841 28.0222 12.5017 27.5961C11.1016 27.2308 9.70151 25.7698 9.51889 24.1262C9.33626 21.0216 10.8581 19.0736 12.1974 17.3082C13.7192 15.6037 15.4237 14.1428 17.1891 12.9253C20.8416 10.6729 24.5549 8.5423 28.39 6.71606C25.2245 9.63805 21.9373 12.1948 18.6501 14.7515C17.1282 16.1516 15.6064 17.4909 14.4497 19.0736C13.2931 20.5346 12.3191 22.4826 12.5017 23.6392C12.5017 24.6132 14.0845 25.2219 15.5455 24.6741C17.0673 24.1871 18.711 22.7261 20.2937 21.4477C23.3983 18.7692 26.0768 15.5429 28.5118 12.073V12.1339Z" fill="#050505"/>
<path d="M17.25 14.0208C15.2411 14.7513 12.5626 12.986 12.38 10.3075C12.0756 7.75074 14.1454 5.37662 16.276 4.58525C18.4066 3.79388 20.2937 3.55038 22.3634 3.4895C24.3723 3.4895 26.3812 3.67212 28.3292 4.34174L22.7287 5.80272C20.9633 6.35059 19.0153 6.77673 17.4935 7.38548C16.0325 7.93335 15.1194 8.9682 14.7541 10.3683C14.4497 11.6467 15.3629 13.4729 17.25 14.0208Z" fill="#050505"/>
<path d="M34.3843 8.12787C37.7966 7.78727 40.395 5.82973 40.1879 3.75559C39.9809 1.68144 37.0469 0.276108 33.6346 0.616701C30.2223 0.957293 27.6239 2.91484 27.8309 4.98898C28.0379 7.06312 30.972 8.46846 34.3843 8.12787Z" stroke="#050505" stroke-width="1.06593" stroke-miterlimit="10"/>
<path d="M33.9912 31.1874C40.383 58.6418 48.7229 87.0703 54.3842 114.707C62.7849 156.041 61.0196 198.714 59.2542 240.901" stroke="#050505" stroke-width="1.06593" stroke-miterlimit="10"/>
<path d="M82.5689 53.4069C79.1599 74.713 80.4383 94.9234 77.2119 116.29C74.8378 131.996 68.9329 147.093 59.9844 160.242" stroke="#050505" stroke-width="1.06593" stroke-miterlimit="10"/>
<path d="M32.0423 142.101C31.9206 150.745 34.7817 159.207 38.6168 166.938C42.4519 174.669 47.261 181.913 51.4613 189.461C55.6617 197.01 59.1315 205.167 59.9838 213.75" stroke="#050505" stroke-width="1.06593" stroke-miterlimit="10"/>
<path d="M46.6523 80.983C43.6086 77.8784 40.8692 74.5912 38.069 71.3039C35.4514 67.8949 32.6512 64.6686 30.1553 61.077C27.5986 57.6071 25.468 53.9547 22.546 50.85C19.624 47.7454 16.0324 45.4322 12.319 43.2407L13.3539 42.6929C13.3539 47.3802 15.728 51.7023 18.5891 55.2939C21.4502 59.0073 25.2245 61.9901 28.6334 65.5209C30.3379 67.2862 32.0424 69.1124 33.6252 71.1213C35.147 73.1911 36.3036 75.4434 37.3994 77.574C38.556 79.6437 39.5909 81.7744 41.2954 83.2962C42.939 84.8181 45.0696 86.0356 47.5046 85.7921V86.0965C45.1305 86.827 42.3302 86.0965 40.2605 84.5746C38.1299 83.0527 36.5471 80.9221 35.2688 78.8524C32.7729 74.5911 29.9118 71.2431 26.4419 67.8341C22.9721 64.5468 19.3805 61.077 16.4585 56.9984C13.5365 52.9198 11.6494 47.8063 12.0755 42.6929L12.1973 41.4753L13.1104 42.145C16.5803 44.7017 20.1719 47.0758 23.4591 49.9978C26.7463 52.9198 29.6683 56.1461 32.3468 59.5551C35.0862 62.9032 37.4603 66.4339 40.017 69.9038C42.452 73.4954 44.8261 77.0261 47.0176 80.8004L46.7741 80.983H46.6523Z" fill="#050505"/>
<path d="M51.0969 102.472C53.5928 99.428 55.1755 95.9581 55.7234 92.3056C56.3322 88.6532 56.0278 84.8181 56.2713 80.9221C56.4539 77.0261 56.7583 73.0693 56.5148 69.1733C56.3322 65.2773 55.906 61.3814 55.4799 57.4854L57.367 58.2767C55.2364 60.4074 53.8972 63.2076 53.1058 66.1904C52.3753 69.1733 52.1318 72.3388 51.8883 75.5043C51.4622 82.0179 50.9143 88.5314 49.7577 95.045H49.4533C48.7837 88.4706 48.662 81.957 48.7228 75.3825C48.7228 72.0953 49.0881 68.6254 50.1838 65.3382C51.2187 62.0509 53.0449 58.8246 55.8452 56.5723L57.854 54.9895L57.7323 57.3636C57.5497 61.2596 57.367 65.2164 57.4279 69.1124C57.4279 73.0084 58.0367 76.9044 58.4628 80.8003C58.9498 84.6354 59.0715 88.7749 58.0367 92.7927C57.0018 96.8104 54.5668 100.463 51.2187 102.654L51.0361 102.411L51.0969 102.472Z" fill="#050505"/>
<path d="M76.8468 115.438C76.9686 110.933 75.0815 107.098 72.9509 103.324C71.916 101.437 70.942 99.3673 69.9071 97.2975C68.994 95.2278 67.8983 93.2189 67.046 91.0274L68.0809 90.8448C68.2635 93.7059 68.8723 96.5671 69.2984 99.3673C69.7245 102.168 70.3332 104.907 71.1855 107.464C71.916 110.02 73.2552 112.638 74.2292 115.316C75.325 117.873 76.1163 121.221 75.2032 124.082H74.8988C74.4727 118.299 69.7245 114.342 68.0809 108.377C67.2286 105.455 66.8634 102.472 66.7416 99.5499C66.6199 96.6279 66.9851 93.7059 66.9851 90.8448V86.9489L68.02 90.6013C68.6288 92.7319 69.7245 94.6799 71.1246 96.4453C72.4639 98.2106 74.0466 99.8543 75.2641 101.863C76.4816 103.872 77.3947 106.063 77.8208 108.438C78.247 110.751 78.1861 113.308 77.0903 115.438H76.786H76.8468Z" fill="#050505"/>
<path d="M69.1758 143.379C72.7066 139.849 76.2373 136.44 78.4288 132.057C79.7071 129.926 80.9246 127.674 82.8726 125.726C84.7597 123.778 87.0121 122.378 89.3253 121.282C93.9518 119.09 98.6392 117.568 103.266 115.681C107.892 113.794 112.458 111.785 116.902 109.594L120.128 108.011L117.51 110.568L104.909 122.986C100.648 127.004 96.5085 131.204 92.4299 135.405C88.3513 139.483 84.9424 144.353 80.1333 148.371C75.0198 151.963 69.1149 153.363 63.5754 155.25L63.4536 154.945C68.6888 152.145 74.2893 149.954 78.6114 146.423C82.5682 142.527 85.9164 137.535 90.1167 133.274C94.1344 128.891 98.6392 124.995 103.083 121.038C107.527 117.142 112.214 113.49 116.719 109.716L117.328 110.69C112.701 112.577 108.196 114.646 103.692 116.838L90.4211 123.595C88.2905 124.752 86.2816 125.969 84.5771 127.552C82.9335 129.135 81.6551 131.143 80.255 133.274C77.5157 137.657 73.3762 140.944 69.2367 143.623L69.0541 143.379H69.1758Z" fill="#050505"/>
<path d="M76.6027 148.493L89.7517 152.511C83.7859 155.311 77.5159 158.172 70.8805 158.111C68.0803 158.111 65.2192 157.563 62.6016 156.467" stroke="#050505" stroke-width="1.06593" stroke-miterlimit="10"/>
<path d="M59.3145 204.924C60.1667 199.749 60.2885 194.575 59.8015 189.461C59.3145 184.348 58.1578 179.295 57.0012 174.243C55.9055 169.19 54.4445 164.138 52.6791 159.146C50.8529 154.215 48.844 149.406 46.7743 144.536L48.7832 144.292C48.1744 153.424 48.6005 162.494 49.818 171.503C51.0355 180.513 53.1661 189.34 55.9664 198.166L55.662 198.288C51.1573 190.192 48.2353 181.182 46.7134 171.99C45.1915 162.798 45.2524 153.302 46.7134 144.11L47.4439 139.483L48.7223 143.866C50.1833 148.919 51.766 153.911 53.5314 158.841C55.3576 163.772 57.4882 168.581 59.2536 173.573C60.9581 178.565 61.993 183.922 62.1756 189.279C62.3582 194.636 61.6277 200.054 59.6188 204.984H59.3145V204.924Z" fill="#050505"/>
<path d="M54.7495 196.28C51.7667 193.114 48.4186 190.436 44.827 188.122C41.2963 185.687 37.4003 183.861 33.626 181.791C29.7909 179.843 26.0167 177.591 22.2425 175.339C18.5291 173.086 14.8158 170.712 11.3459 167.973L12.1982 167.303C14.9375 171.93 18.2856 176.13 21.6337 180.27C25.1036 184.226 28.5735 188.792 32.7129 190.923C34.7218 192.018 37.4611 191.897 40.3831 193.175C43.3051 194.575 45.0096 197.01 46.775 198.897C48.5403 200.906 50.3057 202.306 52.9233 203.037C55.3583 203.706 58.7064 205.35 58.889 208.454H58.5846C57.8541 205.776 54.993 205.106 52.4972 204.619C49.7578 204.315 46.8358 202.611 44.9487 200.663C42.9399 198.715 41.1745 196.827 39.1048 195.975C37.0959 195.062 34.1739 195.184 31.3128 193.784C28.5126 192.505 26.5037 190.314 24.6775 188.244C22.9121 186.174 21.1467 184.044 19.564 181.852C16.3376 177.469 13.6592 172.66 11.1633 167.851L9.76318 165.173L12.0155 167.181C15.2419 170.043 18.9553 172.295 22.8512 174.182C26.7472 176.069 30.8258 177.53 34.7827 179.478C38.7395 181.365 42.5137 183.679 46.1053 186.296C49.5752 189.035 52.8016 192.262 54.993 196.097L54.7495 196.28Z" fill="#050505"/>
<path d="M60.5324 213.69C62.4195 210.585 64.611 207.724 66.7416 204.741L70.1506 200.48C71.2464 199.08 72.5856 197.558 74.6553 196.645C76.7251 195.792 78.6122 196.036 80.2558 195.732C81.9603 195.488 83.6039 195.001 85.2475 194.271C88.413 192.749 91.2132 190.375 93.7091 187.818L96.9963 184.47L94.6831 188.609C92.6134 192.262 90.6654 195.975 88.5348 199.567C87.3781 201.393 86.5259 203.158 85.1258 204.984C83.7257 206.75 82.082 208.211 80.3776 209.489C73.864 214.664 66.9851 219.412 59.8628 223.795L59.6802 223.551C65.585 217.646 71.8551 212.107 78.3687 206.993C79.9514 205.654 81.4733 204.376 82.7517 202.976C83.9692 201.576 85.0649 199.628 86.2824 197.984C88.5956 194.575 91.1524 191.288 93.5874 187.94L94.5613 188.731C91.7611 191.044 89.0218 193.418 85.8563 195.305C84.2735 196.279 82.569 197.132 80.7428 197.68C78.8557 198.227 77.0294 198.41 75.7511 199.019C73.3161 200.419 70.942 203.706 68.5679 206.202C66.072 208.759 63.5762 211.376 60.8368 213.811L60.5933 213.629L60.5324 213.69Z" fill="#050505"/>
<path d="M20.2332 107.463C23.5813 103.141 28.5731 99.7322 34.4779 99.1844C35.9389 99.1235 37.3999 99.1235 38.9218 99.4887C40.3827 99.854 42.1481 100.645 42.9395 102.35C43.7308 103.993 43.5482 105.881 42.5134 107.159C41.4785 108.376 39.8957 108.985 38.4956 108.742C41.235 107.95 42.209 104.967 40.8697 103.567C39.7131 102.228 37.0346 102.045 34.6605 102.228C29.7297 102.593 25.0423 104.967 20.1724 107.463H20.2332Z" fill="#050505"/>
<path d="M22.7287 110.142C27.5987 108.376 32.8339 107.463 38.13 107.524C40.8085 107.524 43.6087 108.072 46.1655 109.35C47.4438 110.02 48.6004 110.933 49.6353 112.151C50.6093 113.307 51.3398 115.134 50.9137 117.021C49.9397 120.612 46.409 122.134 43.5479 122.195C40.5041 122.256 38.0691 121.221 35.6341 120.247C30.6424 118.421 26.1377 116.047 21.5112 113.673C26.5638 114.89 31.4947 116.777 36.3038 117.995L39.8954 119.03C41.1129 119.273 42.2695 119.395 43.3652 119.273C45.5567 119.273 47.5656 117.934 47.9308 116.29C48.357 114.89 46.7133 112.942 44.7653 111.846C42.8174 110.629 40.3824 110.142 37.9474 109.837C32.9557 109.35 27.7813 109.594 22.6678 110.142H22.7287Z" fill="#050505"/>
<path d="M39.2874 120.186C42.5746 122.256 45.5575 125.665 45.3749 130.413C45.2531 132.787 43.2442 135.101 40.8093 135.588C38.4351 136.196 36.0002 135.466 34.1739 134.37C30.5214 131.996 28.2691 129.013 25.4688 126.213C22.9121 123.352 19.8684 120.551 18.6509 116.656C20.9032 119.821 24.1905 121.952 27.1125 124.508C30.0953 126.822 32.8347 129.926 35.7567 131.752C38.496 133.64 42.4529 133.213 43.1225 129.987C43.5486 128.465 43.1225 126.639 42.3311 124.934C41.6615 123.169 40.5658 121.647 39.2874 120.125V120.186Z" fill="#050505"/>
<path d="M33.7474 132.544C34.3561 134.187 34.7823 135.953 34.7214 137.84C34.5996 139.727 33.6256 141.736 31.982 143.014C30.3993 144.475 27.5382 144.597 25.6511 143.44C23.7031 142.345 22.6073 140.457 21.816 138.875C18.5896 132.483 16.8851 125.543 16.2764 118.543C19.1984 124.995 21.3898 131.509 24.4944 137.535C25.8337 140.579 28.1469 142.527 30.6428 141.127C33.3213 139.788 33.8083 136.074 33.6865 132.544H33.7474Z" fill="#050505"/>
<path d="M17.9816 122.256C19.6861 126.213 20.4166 130.596 20.234 134.979C20.1122 137.17 19.9905 139.362 18.773 141.736C18.1643 142.892 17.0076 143.927 15.6684 144.414C14.39 144.962 12.442 144.84 11.2245 143.805C8.9113 141.675 8.78956 139.118 8.60693 136.866C8.60693 134.553 8.97218 132.361 9.58093 130.23C10.981 126.152 12.442 122.073 14.2074 118.238C13.6595 122.56 12.7464 126.639 11.8942 130.717C11.6507 132.787 11.3463 134.796 11.5289 136.744C11.6507 138.57 12.1985 140.701 13.1725 141.431C13.8422 142.162 15.6075 141.614 16.3989 140.275C17.312 138.936 17.6164 136.744 17.9816 134.796C18.6513 130.717 18.5295 126.578 18.0425 122.317L17.9816 122.256Z" fill="#050505"/>
<path d="M9.15397 134.553C7.99735 136.622 4.71012 138.875 1.66639 136.44C-0.890344 133.64 0.570647 129.987 1.78814 127.917C4.5275 123.474 7.99736 119.638 12.3803 116.96C9.70185 121.343 6.84073 125.3 4.40575 129.439C3.18826 131.387 2.51863 133.518 3.37088 134.918C4.10138 136.257 7.14511 136.014 9.15397 134.614V134.553Z" fill="#050505"/>
<path d="M19.2307 115.619C21.7977 113.196 22.6813 109.963 21.2042 108.398C19.7272 106.834 16.4489 107.53 13.8819 109.953C11.3149 112.376 10.4313 115.609 11.9083 117.174C13.3853 118.738 16.6637 118.042 19.2307 115.619Z" stroke="#050505" stroke-width="1.06593" stroke-miterlimit="10"/>
<path d="M112.824 61.3813C114.407 61.8683 115.685 62.5988 116.964 63.3902C118.303 64.1815 119.581 65.3991 120.312 67.1644C120.981 68.8689 120.981 71.1213 119.581 72.6431C118.242 74.2259 115.685 74.2868 114.711 72.8867C116.233 73.1302 117.329 72.0953 117.633 71.3039C117.938 70.3908 117.877 69.295 117.451 68.3211C116.781 66.3122 114.163 64.2424 112.824 61.4422V61.3813Z" fill="#050505"/>
<path d="M108.622 63.2077C111.301 65.2165 113.371 68.1385 114.649 71.3649C115.319 72.9476 115.867 74.7738 115.562 76.9045C115.319 78.9133 113.31 81.2266 110.936 81.2874C108.622 81.4701 106.492 80.0091 105.457 78.3046C104.422 76.5392 104.057 74.5912 104.118 72.8868C104.361 69.4778 105.153 66.1297 105.944 62.9033C106.37 66.2514 106.248 69.5387 106.431 72.7041C106.735 75.7479 108.501 78.4872 110.692 78.2437C112.762 78.2437 113.371 75.1391 112.397 72.0954C111.666 69.0516 110.327 66.0688 108.562 63.2077H108.622Z" fill="#050505"/>
<path d="M104.971 74.1649C104.727 77.1478 102.779 80.0697 99.7962 81.5916C98.3961 82.4439 95.8393 82.5656 94.2566 81.0437C92.7347 79.5827 92.3695 77.4521 92.6739 75.7476C93.3435 72.3995 94.9871 69.7211 97.0568 67.4687C99.1266 65.2163 101.44 63.3292 103.936 61.7465C102.292 64.2423 100.405 66.4947 98.8831 68.8688C97.4221 71.2429 96.0828 73.7997 95.6567 76.1738C95.4132 77.3304 95.6567 78.3652 96.2655 79.0348C96.7525 79.7045 97.6656 79.7653 98.8831 79.461C101.257 78.7305 103.51 76.7216 104.91 74.1649H104.971Z" fill="#050505"/>
<path d="M76.481 120.308C79.7073 112.516 84.5773 105.759 89.9342 99.2452C93.0389 95.4101 96.5087 91.8185 99.4307 87.7399C102.353 83.6613 104.666 79.0958 105.214 74.1649" stroke="#050505" stroke-width="1.06593" stroke-miterlimit="10"/>
<path d="M97.3005 69.1734C96.3265 69.6604 95.2308 69.9648 94.1351 70.33C92.9176 70.4518 91.5783 70.2083 90.4217 69.1734C88.1085 66.9211 89.2042 63.3294 90.9087 61.6249C94.2568 58.1551 99.4311 56.755 103.631 58.3986C99.3703 59.19 95.7178 61.0162 93.1611 63.6947C91.9436 64.9122 91.5783 66.4949 92.1871 67.7124C92.4914 68.3212 93.2828 68.7473 94.1959 68.9299C95.1699 69.0517 96.2048 69.0517 97.3005 69.2343V69.1734Z" fill="#050505"/>
<path d="M112.039 62.3365C112.528 60.9758 110.999 59.1823 108.626 58.3307C106.253 57.479 103.933 57.8917 103.445 59.2524C102.956 60.6131 104.485 62.4066 106.858 63.2582C109.231 64.1099 111.551 63.6972 112.039 62.3365Z" stroke="#050505" stroke-width="0.63956" stroke-miterlimit="10"/>
</svg>
